<?xml version="1.0" standalone="no"?>
<!DOCTYPE svg PUBLIC "-//W3C//DTD SVG 20010904//EN"
 "http://www.w3.org/TR/2001/REC-SVG-20010904/DTD/svg10.dtd">
<svg version="1.0" xmlns="http://www.w3.org/2000/svg"
 width="640.000000pt" height="640.000000pt" viewBox="0 0 640.000000 640.000000"
 preserveAspectRatio="xMidYMid meet">
<metadata>
Created by potrace 1.11, written by Peter Selinger 2001-2013
</metadata>
<g transform="translate(0.000000,640.000000) scale(0.100000,-0.100000)"
fill="#000000" stroke="none">
<path d="M3369 6396 c-2 -2 -47 -6 -99 -10 -85 -5 -112 -8 -185 -21 -31 -6
-88 -27 -111 -42 -11 -7 -24 -10 -27 -6 -6 6 -11 -11 -8 -29 0 -4 -5 -5 -13
-2 -14 5 -55 -31 -91 -80 -27 -38 -82 -64 -127 -61 -27 1 -38 -2 -38 -12 0 -8
-5 -11 -10 -8 -6 4 -8 10 -5 15 3 5 -5 7 -17 5 -13 -3 -37 -8 -55 -11 -42 -8
-43 -43 -1 -40 18 1 28 -3 28 -12 0 -8 -6 -12 -15 -8 -26 10 -46 -4 -35 -24
13 -25 13 -30 -5 -30 -8 0 -15 -5 -15 -11 0 -5 -5 -7 -11 -3 -6 3 -3 -5 6 -19
20 -32 11 -51 -22 -44 -14 3 -31 -2 -40 -12 -15 -15 -16 -14 -11 9 4 14 2 34
-3 45 -6 13 -7 -9 -4 -64 7 -99 14 -113 56 -101 16 5 27 5 24 0 -3 -5 0 -12 6
-15 5 -4 8 -14 5 -22 -4 -9 -1 -23 6 -31 10 -12 10 -14 1 -8 -9 5 -13 1 -13
-11 0 -14 -2 -15 -9 -4 -5 7 -6 22 -4 32 8 28 -14 50 -40 40 -12 -5 -29 -6
-37 -3 -13 4 -13 3 -2 -11 11 -13 10 -15 -6 -10 -23 5 -38 -12 -21 -23 8 -4 9
-3 5 4 -4 7 -2 12 3 12 6 0 11 -4 11 -10 0 -5 5 -9 12 -7 14 2 29 -61 17 -69
-5 -3 -11 1 -13 8 -13 42 -17 48 -30 48 -17 0 -39 -34 -29 -44 3 -3 0 -7 -8
-7 -8 -1 -18 -2 -24 -4 -5 -1 -15 -3 -21 -3 -19 -3 -34 -72 -74 -357 -82 -585
-85 -611 -85 -1030 1 -413 11 -550 61 -790 65 -308 166 -546 432 -1015 263
-462 294 -546 333 -890 20 -173 17 -632 -4 -735 -21 -102 -65 -190 -127 -259
-47 -50 -54 -54 -107 -60 -211 -25 -421 -79 -504 -131 -50 -32 -73 -82 -66
-143 6 -53 30 -80 105 -120 109 -57 299 -106 537 -136 161 -21 568 -22 730 -1
321 41 544 111 616 192 25 29 29 42 29 94 0 51 -4 64 -25 85 -63 63 -245 120
-479 150 l-137 18 -52 56 c-127 137 -152 238 -151 625 0 273 15 463 50 629 23
110 88 261 201 463 57 103 145 261 195 351 319 575 409 969 395 1730 -6 344
-18 453 -134 1245 -5 36 -8 39 -34 35 -18 -3 -26 -1 -21 6 12 19 10 34 -3 40
-14 5 -29 -20 -20 -34 3 -4 -2 -10 -10 -14 -11 -4 -15 2 -15 20 0 29 -25 42
-50 26 -24 -15 -45 7 -25 25 9 8 16 9 20 3 7 -12 107 -9 116 4 13 17 -3 47
-25 45 -34 -2 -46 0 -46 11 0 5 13 7 31 3 l31 -6 -5 39 c-7 57 -26 126 -39
141 -6 7 -8 13 -4 13 9 0 -24 37 -88 99 -146 139 -176 167 -176 164 0 -2 -13
10 -30 25 -27 27 -82 57 -140 79 -14 5 -56 10 -95 12 -38 2 -73 5 -76 7 -3 2
-8 2 -10 0z m-766 -382 c-4 -12 -8 -13 -14 -3 -9 15 -2 32 11 24 5 -3 6 -13 3
-21z m-56 -146 c-3 -8 -6 -5 -6 6 -1 11 2 17 5 13 3 -3 4 -12 1 -19z m1190
-174 c-3 -3 -12 -4 -19 -1 -8 3 -5 6 6 6 11 1 17 -2 13 -5z m57 -2 c2 -4 -6
-8 -19 -8 -13 0 -21 4 -19 8 3 4 11 8 19 8 8 0 16 -4 19 -8z m69 1 c-7 -2 -19
-2 -25 0 -7 3 -2 5 12 5 14 0 19 -2 13 -5z m67 3 c0 -3 -4 -8 -10 -11 -5 -3
-10 -1 -10 4 0 6 5 11 10 11 6 0 10 -2 10 -4z m-1546 -134 c-16 -24 -16 -25 8
-20 22 4 24 2 22 -31 -1 -20 -4 -43 -8 -51 -3 -8 -7 -30 -10 -48 -5 -36 -16
-56 -16 -29 0 21 -19 32 -32 19 -6 -6 -6 -12 3 -17 8 -6 10 -4 4 6 -5 8 -4 10
0 6 5 -4 10 -14 11 -23 2 -11 -3 -13 -18 -8 -15 4 -18 3 -13 -6 4 -6 18 -10
31 -7 16 3 24 0 24 -9 0 -8 -3 -13 -7 -13 -22 4 -43 -2 -43 -12 0 -5 6 -7 13
-3 9 5 9 4 0 -6 -10 -11 -15 -11 -27 0 -9 7 -13 17 -10 22 3 5 8 30 10 56 2
26 7 63 10 82 3 19 8 44 9 55 2 11 4 22 5 25 1 3 2 8 1 12 0 4 4 20 10 35 10
27 11 27 25 9 12 -17 12 -23 -2 -44z m50 41 c-5 -5 -12 -12 -15 -16 -3 -5 -9
-2 -12 7 -5 12 0 16 15 16 12 0 17 -3 12 -7z m194 -12 c3 -8 0 -11 -7 -7 -6 4
-11 0 -11 -11 0 -15 -2 -16 -10 -3 -5 8 -10 11 -10 6 0 -5 -6 -3 -13 3 -8 6
-17 8 -20 5 -3 -3 -16 1 -29 10 -22 16 -21 17 36 14 40 -2 61 -8 64 -17z m632
9 c3 -1 14 -3 25 -4 24 -1 28 -47 5 -53 -13 -4 -13 -3 0 6 13 10 13 11 0 11
-8 0 -21 9 -28 20 -7 11 -17 20 -23 20 -5 0 -7 -5 -3 -12 4 -6 3 -8 -4 -4 -6
3 -13 2 -17 -3 -3 -6 -12 -8 -19 -5 -13 5 -30 -11 -31 -28 0 -5 -4 -7 -10 -5
-5 1 -9 5 -7 10 1 4 -2 7 -8 7 -5 0 -10 5 -10 10 0 6 4 9 9 8 5 -2 9 2 9 7 1
17 83 28 112 15z m397 -24 c-8 -21 -59 -17 -55 4 2 8 8 15 15 15 6 0 15 3 19
8 12 11 27 -9 21 -27z m173 20 c0 -8 -5 -18 -12 -22 -7 -4 -8 -3 -4 4 10 17
-1 15 -23 -4 -10 -9 -17 -24 -16 -33 1 -9 0 -11 -2 -4 -2 7 -10 11 -16 9 -7
-1 -8 -1 -4 2 4 2 2 11 -5 20 -10 12 -10 14 0 8 8 -5 12 0 12 13 0 17 6 21 35
21 24 0 35 -5 35 -14z m100 -10 c0 -30 16 -42 35 -26 13 10 15 8 15 -12 0 -30
-9 -41 -25 -28 -14 11 -87 1 -79 -11 3 -5 -1 -9 -8 -9 -10 0 -10 -2 0 -9 8 -4
13 -17 12 -27 -4 -33 0 -44 14 -44 17 0 29 27 16 35 -16 10 -11 25 5 19 8 -4
15 -16 15 -29 0 -27 24 -39 40 -20 8 10 8 19 -2 34 -7 11 -9 24 -5 28 12 12
27 -18 27 -57 1 -19 3 -63 4 -97 4 -68 -3 -77 -50 -64 -19 5 -24 10 -15 15 7
4 15 5 18 2 10 -9 33 15 33 34 0 25 -19 29 -57 13 -44 -18 -47 -17 -26 10 12
17 24 22 41 19 19 -4 23 -1 20 14 -2 13 -13 20 -33 21 -17 1 -40 5 -52 9 -14
4 -23 2 -23 -5 0 -6 -10 -11 -22 -11 -19 0 -20 2 -8 10 8 5 11 10 7 10 -4 0
-2 6 5 14 7 8 16 12 21 9 4 -2 7 3 7 12 0 9 -4 14 -9 11 -4 -3 -6 6 -3 19 2
14 -2 31 -12 40 -27 27 -20 44 15 38 34 -5 59 11 59 38 0 11 5 19 10 19 6 0
10 -11 10 -24z m45 14 c3 -5 1 -10 -4 -10 -6 0 -11 5 -11 10 0 6 2 10 4 10 3
0 8 -4 11 -10z m75 -45 c-1 -16 2 -41 4 -55 18 -85 18 -107 2 -113 -11 -5 -16
-1 -16 12 0 11 4 21 10 23 6 2 3 15 -6 33 -9 18 -11 31 -5 33 6 2 7 12 1 26
-11 31 -11 103 1 85 5 -8 9 -27 9 -44z m-603 39 c-3 -3 -12 -4 -19 -1 -8 3 -5
6 6 6 11 1 17 -2 13 -5z m40 0 c-3 -3 -12 -4 -19 -1 -8 3 -5 6 6 6 11 1 17 -2
13 -5z m246 -1 c-13 -2 -33 -2 -45 0 -13 2 -3 4 22 4 25 0 35 -2 23 -4z
m-1113 -53 c0 -5 -5 -10 -11 -10 -5 0 -7 5 -4 10 3 6 8 10 11 10 2 0 4 -4 4
-10z m108 3 c-10 -2 -26 -2 -35 0 -10 3 -2 5 17 5 19 0 27 -2 18 -5z m195 0
c-7 -2 -19 -2 -25 0 -7 3 -2 5 12 5 14 0 19 -2 13 -5z m104 1 c-3 -3 -12 -4
-19 -1 -8 3 -5 6 6 6 11 1 17 -2 13 -5z m412 -27 c-4 -15 -4 -25 0 -23 5 3 17
-1 27 -9 19 -14 19 -14 -1 -15 -27 0 -47 14 -43 30 2 8 -13 21 -32 31 l-34 17
45 -2 c45 -1 46 -1 38 -29z m218 27 c-3 -3 -12 -4 -19 -1 -8 3 -5 6 6 6 11 1
17 -2 13 -5z m-834 -68 c4 -10 1 -13 -8 -9 -8 3 -12 9 -9 14 7 12 11 11 17 -5z
m405 -4 c2 -7 -9 -9 -32 -5 -28 4 -37 2 -42 -12 -5 -13 -9 -14 -15 -4 -4 8 -2
17 7 23 19 14 77 12 82 -2z m-258 -2 c0 -5 -4 -10 -10 -10 -5 0 -10 5 -10 10
0 6 5 10 10 10 6 0 10 -4 10 -10z m59 -11 c-16 -10 -23 -4 -14 10 3 6 11 8 17
5 6 -4 5 -9 -3 -15z m56 11 c8 -13 -5 -13 -25 0 -13 8 -13 10 2 10 9 0 20 -4
23 -10z m220 -1 c11 -17 -1 -21 -15 -4 -8 9 -8 15 -2 15 6 0 14 -5 17 -11z
m-555 -15 c0 -8 -5 -12 -10 -9 -6 4 -8 11 -5 16 9 14 15 11 15 -7z m905 -34
c3 -5 1 -10 -4 -10 -6 0 -11 5 -11 10 0 6 2 10 4 10 3 0 8 -4 11 -10z m-1036
-14 c7 -8 8 -16 4 -19 -11 -7 -45 18 -36 26 10 11 19 8 32 -7z m552 -11 c5 3
6 -1 3 -10 -6 -15 -8 -15 -22 -2 -9 9 -11 20 -6 29 7 10 9 9 12 -5 2 -9 8 -15
13 -12z m-681 -26 c0 -45 -22 -52 -24 -7 -1 15 2 24 6 22 4 -3 8 2 8 10 0 9 2
16 5 16 3 0 5 -18 5 -41z m80 31 c0 -5 -4 -10 -10 -10 -5 0 -10 5 -10 10 0 6
5 10 10 10 6 0 10 -4 10 -10z m750 6 c0 -2 -8 -10 -17 -17 -16 -13 -17 -12 -4
4 13 16 21 21 21 13z m265 -6 c15 -6 16 -9 4 -9 -12 -1 -14 -9 -11 -31 2 -16
0 -30 -5 -30 -6 0 -8 11 -6 24 3 13 0 27 -6 30 -12 8 -15 26 -3 25 4 0 16 -4
27 -9z m-893 -35 c3 -14 0 -29 -7 -35 -8 -7 -11 0 -11 25 1 41 12 46 18 10z
m1385 1 c0 -8 -6 -12 -14 -9 -7 3 -10 9 -7 14 8 14 21 11 21 -5z m-1256 -43
c-8 -15 -10 -15 -11 -2 0 17 10 32 18 25 2 -3 -1 -13 -7 -23z m1248 18 c12 -8
13 -12 1 -26 -11 -14 -11 -16 1 -13 9 2 15 -7 17 -24 2 -18 -1 -28 -10 -28
-10 0 -10 -2 -1 -8 6 -4 14 -20 17 -35 4 -23 1 -27 -18 -27 -21 0 -23 5 -25
68 -1 37 -4 75 -7 85 -6 19 3 22 25 8z m-1509 -5 c0 -3 -4 -8 -10 -11 -5 -3
-10 -1 -10 4 0 6 5 11 10 11 6 0 10 -2 10 -4z m813 -16 c-3 -12 -8 -19 -11
-16 -5 6 5 36 12 36 2 0 2 -9 -1 -20z m-996 -32 c-3 -7 -5 -2 -5 12 0 14 2 19
5 13 2 -7 2 -19 0 -25z m-30 -19 c1 -10 -2 -21 -7 -24 -13 -8 0 -35 16 -35 16
0 20 -29 4 -31 -42 -4 -65 -1 -62 10 4 20 11 75 11 99 1 19 4 20 19 11 10 -6
19 -20 19 -30z m1499 -3 c8 -9 10 -17 5 -21 -6 -3 -8 -12 -4 -20 6 -17 43 -20
43 -4 0 6 7 3 16 -5 19 -19 38 -20 64 -4 23 14 46 -1 37 -24 -4 -12 -83 -16
-164 -9 -8 1 -13 16 -13 42 0 24 -4 38 -10 34 -5 -3 -10 1 -10 9 0 20 17 21
36 2z m-1366 -72 c0 -8 -9 -14 -22 -13 -13 0 -17 3 -10 6 6 2 12 11 12 19 0 9
5 12 10 9 6 -3 10 -13 10 -21z"/>
<path d="M2360 5526 c0 -2 7 -7 16 -10 8 -3 12 -2 9 4 -6 10 -25 14 -25 6z"/>
<path d="M2356 5502 c-3 -4 4 -9 15 -9 23 -2 25 3 4 10 -8 4 -16 3 -19 -1z"/>
<path d="M2341 5434 c0 -11 3 -14 6 -6 3 7 2 16 -1 19 -3 4 -6 -2 -5 -13z"/>
<path d="M4060 5221 c0 -10 19 -25 25 -20 1 2 -3 10 -11 17 -8 7 -14 8 -14 3z"/>
<path d="M2507 6073 c1 -7 6 -21 9 -30 4 -14 1 -12 -14 5 -11 12 -24 22 -28
22 -4 0 -3 -5 4 -12 15 -15 15 -25 0 -31 -7 -2 -2 -2 10 0 17 3 22 0 16 -9 -6
-9 -3 -9 9 1 11 9 15 21 11 34 -3 11 -2 17 3 14 5 -4 10 0 10 8 0 11 -4 12
-13 4 -6 -5 -14 -6 -16 -2 -3 4 -3 2 -1 -4z"/>
<path d="M2470 5995 c0 -5 5 -17 10 -25 5 -8 10 -10 10 -5 0 6 -5 17 -10 25
-5 8 -10 11 -10 5z"/>
<path d="M2499 5982 c6 -11 7 -22 4 -26 -3 -3 -4 -6 -1 -6 3 0 11 6 17 14 10
12 8 17 -9 26 -20 10 -21 10 -11 -8z"/>
<path d="M2435 5850 c-3 -5 -2 -18 4 -27 7 -14 9 -12 8 10 -2 30 -3 31 -12 17z"/>
<path d="M2408 5828 c8 -9 11 -22 7 -28 -3 -5 -1 -10 4 -10 17 0 13 26 -6 41
-16 13 -17 12 -5 -3z"/>
<path d="M2374 5798 l-19 -23 23 19 c12 11 22 21 22 23 0 8 -8 2 -26 -19z"/>
<path d="M2356 5762 c-3 -4 4 -9 15 -9 23 -2 25 3 4 10 -8 4 -16 3 -19 -1z"/>
<path d="M2360 5735 c0 -5 5 -17 10 -25 5 -8 10 -10 10 -5 0 6 -5 17 -10 25
-5 8 -10 11 -10 5z"/>
</g>
</svg>
